HIERARCHY
ROOT Hips
{
	OFFSET	0.00	0.00	0.00
	CHANNELS 6 Xposition Yposition Zposition Zrotation Xrotation Yrotation
	JOINT LeftUpLeg
	{
		OFFSET	 0.126116	-0.014019	-0.065224
		CHANNELS 3 Zrotation Xrotation Yrotation
		JOINT LeftLeg
		{
			OFFSET	 0.000000	 0.000000	 0.569914
			CHANNELS 3 Zrotation Xrotation Yrotation
			JOINT LeftFoot
			{
				OFFSET	 0.000000	 0.000000	 0.544423
				CHANNELS 3 Zrotation Xrotation Yrotation
				JOINT LeftToeBase
				{
					OFFSET	 0.000000	 0.000000	 0.207117
					CHANNELS 3 Zrotation Xrotation Yrotation
					End Site
					{
						OFFSET	 0.000000	 0.000000	 0.207117
					}
				}
			}
		}
	}
	JOINT RightUpLeg
	{
		OFFSET	-0.124023	-0.008373	-0.065224
		CHANNELS 3 Zrotation Xrotation Yrotation
		JOINT RightLeg
		{
			OFFSET	 0.000000	 0.000000	 0.570047
			CHANNELS 3 Zrotation Xrotation Yrotation
			JOINT RightFoot
			{
				OFFSET	 0.000000	 0.000000	 0.544354
				CHANNELS 3 Zrotation Xrotation Yrotation
				JOINT RightToeBase
				{
					OFFSET	 0.000000	 0.000000	 0.207540
					CHANNELS 3 Zrotation Xrotation Yrotation
					End Site
					{
						OFFSET	 0.000000	 0.000000	 0.207540
					}
				}
			}
		}
	}
	JOINT Spine
	{
		OFFSET	 0.000184	-0.007763	 0.117403
		CHANNELS 3 Zrotation Xrotation Yrotation
		JOINT Spine1
		{
			OFFSET	 0.000000	 0.000000	 0.137269
			CHANNELS 3 Zrotation Xrotation Yrotation
			JOINT Spine2
			{
				OFFSET	 0.000000	 0.000000	 0.156879
				CHANNELS 3 Zrotation Xrotation Yrotation
				JOINT LeftShoulder
				{
					OFFSET	 0.080501	-0.002496	 0.160144
					CHANNELS 3 Zrotation Xrotation Yrotation
					JOINT LeftArm
					{
						OFFSET	 0.000000	 0.000000	 0.164363
						CHANNELS 3 Zrotation Xrotation Yrotation
						JOINT LeftForeArm
						{
							OFFSET	 0.000000	 0.000000	 0.364576
							CHANNELS 3 Zrotation Xrotation Yrotation
							JOINT LeftHand
							{
								OFFSET	 0.000000	 0.000000	 0.360812
								CHANNELS 3 Zrotation Xrotation Yrotation
								JOINT LeftHandIndex1
								{
									OFFSET	 0.000000	 0.000000	 0.086006
									CHANNELS 3 Zrotation Xrotation Yrotation
									JOINT LeftHandIndex2
									{
										OFFSET	 0.000000	 0.000000	 0.047236
										CHANNELS 3 Zrotation Xrotation Yrotation
										JOINT LeftHandIndex3
										{
											OFFSET	-0.004284	-0.000551	 0.038166
											CHANNELS 3 Zrotation Xrotation Yrotation
											End Site
											{
												OFFSET	-0.004284	-0.000551	 0.038166
											}
										}
									}
								}
							}
						}
					}
				}
				JOINT Neck
				{
					OFFSET	 0.000000	 0.000000	 0.176489
					CHANNELS 3 Zrotation Xrotation Yrotation
					JOINT Head
					{
						OFFSET	 0.000000	-0.001747	 0.077940
						CHANNELS 3 Zrotation Xrotation Yrotation
						End Site
						{
							OFFSET	 0.000000	-0.001747	 0.077940
						}
					}
				}
				JOINT RightShoulder
				{
					OFFSET	-0.080363	 0.000306	 0.159706
					CHANNELS 3 Zrotation Xrotation Yrotation
					JOINT RightArm
					{
						OFFSET	 0.000000	 0.000000	 0.164196
						CHANNELS 3 Zrotation Xrotation Yrotation
						JOINT RightForeArm
						{
							OFFSET	 0.000000	 0.000000	 0.365611
							CHANNELS 3 Zrotation Xrotation Yrotation
							JOINT RightHand
							{
								OFFSET	 0.000000	 0.000000	 0.360648
								CHANNELS 3 Zrotation Xrotation Yrotation
								JOINT RightHandIndex1
								{
									OFFSET	 0.000000	 0.000000	 0.069977
									CHANNELS 3 Zrotation Xrotation Yrotation
									JOINT RightHandIndex2
									{
										OFFSET	 0.000000	 0.000000	 0.052305
										CHANNELS 3 Zrotation Xrotation Yrotation
										JOINT RightHandIndex3
										{
											OFFSET	 0.009002	-0.000782	 0.042196
											CHANNELS 3 Zrotation Xrotation Yrotation
											End Site
											{
												OFFSET	 0.009002	-0.000782	 0.042196
											}
										}
									}
								}
							}
						}
					}
				}
			}
		}
	}
}
MOTION
Frames:    7
Frame Time: 0.03333334
 0.000029	 0.019381	 1.222243	-0.005272	 0.005140	 0.114935	-6.488972	-13.232950	 179.437600	 0.761542	-36.123260	-2.406333	-24.364760	 83.355190	 18.517230	-2.385833	 28.452760	 0.000004	 6.324954	-13.327520	-179.613700	-0.765295	-36.043990	 2.355216	 23.514580	 83.306720	-17.808690	 2.384658	 28.388730	 0.000004	-2.825647	 3.470137	 0.284081	-1.419837	 1.056574	-0.658603	 4.295822	-1.266158	 0.782180	-91.776210	 78.527450	-180.000000	 58.607210	 41.016670	-44.598450	-7.696855	 4.627983	-11.652000	-28.486330	 3.610293	-4.257612	-2.635965	 4.993658	 6.788941	-5.165319	 0.784187	 3.516649	-5.225038	 0.466231	 0.424329	-0.000002	-3.783157	-0.089647	 4.259066	 6.430241	-0.239369	 89.782110	 78.203890	 180.000000	 10.035580	 13.317590	 86.878750	-33.656390	-4.763601	 14.348550	 3.860986	 3.118726	-6.104821	 6.112037	 4.509576	-0.364401	 4.968462	 1.518543	-9.347576	 5.168945	 0.703820	 2.021906
 0.000038	 0.019248	 1.222385	-0.005082	 0.004878	 0.118885	-6.489530	-13.209290	 179.432800	 0.763851	-36.078830	-2.402413	-24.271790	 83.336520	 18.423280	-2.385833	 28.452760	 0.000004	 6.323185	-13.294820	-179.616500	-0.768027	-35.990190	 2.350570	 23.424510	 83.288520	-17.717530	 2.384658	 28.388730	 0.000004	-2.968748	 3.440263	 0.293495	-1.491822	 1.160900	-0.685781	 4.513540	-1.390705	 0.827213	-91.776120	 78.527430	 179.999900	 58.625880	 41.019750	-44.528730	-7.692328	 4.650112	-11.708730	-28.483910	 3.610554	-4.257190	-2.635965	 4.993658	 6.788941	-5.165319	 0.784187	 3.516649	-5.225038	 0.466231	 0.424329	-0.000002	-3.783157	-0.089647	 4.472295	 6.349076	-0.248185	 89.782110	 78.203890	 180.000000	 9.999352	 13.379610	 86.866890	-33.704790	-4.782946	 14.364750	 3.862262	 3.082551	-6.125832	 6.112037	 4.509576	-0.364401	 4.968462	 1.518543	-9.347576	 5.168945	 0.703820	 2.021906
 0.000047	 0.019100	 1.222542	-0.004811	 0.004534	 0.122865	-6.490090	-13.182710	 179.427900	 0.766440	-36.028860	-2.398012	-24.167790	 83.315460	 18.318190	-2.385833	 28.452760	 0.000004	 6.321249	-13.258200	-179.619200	-0.771078	-35.930030	 2.345378	 23.323870	 83.268130	-17.615660	 2.384658	 28.388730	 0.000004	-3.119647	 3.405618	 0.303136	-1.567909	 1.282042	-0.713182	 4.743659	-1.535820	 0.875973	-91.776290	 78.527430	-179.999900	 58.654080	 41.022690	-44.456260	-7.687252	 4.674578	-11.771480	-28.482650	 3.610739	-4.256964	-2.635965	 4.993658	 6.788941	-5.165319	 0.784187	 3.516649	-5.225038	 0.466231	 0.424329	-0.000002	-3.783157	-0.089647	 4.697008	 6.255829	-0.256833	 89.782140	 78.203920	 180.000000	 9.961411	 13.457220	 86.855030	-33.761960	-4.805570	 14.383120	 3.867888	 3.035324	-6.151045	 6.112037	 4.509576	-0.364401	 4.968462	 1.518543	-9.347576	 5.168945	 0.703820	 2.021906
 0.000053	 0.018970	 1.222679	-0.004538	 0.004191	 0.126039	-6.490542	-13.159500	 179.423900	 0.768697	-35.985230	-2.394174	-24.077540	 83.297120	 18.227000	-2.385833	 28.452760	 0.000004	 6.319575	-13.226260	-179.621400	-0.773716	-35.877740	 2.340873	 23.236620	 83.250370	-17.527320	 2.384658	 28.388730	 0.000004	-3.244294	 3.374184	 0.310799	-1.630920	 1.392107	-0.734886	 4.934220	-1.668091	 0.917517	-91.776190	 78.527450	-180.000000	 58.686310	 41.024910	-44.398680	-7.682684	 4.696011	-11.826430	-28.482900	 3.610757	-4.257075	-2.635965	 4.993658	 6.788941	-5.165319	 0.784187	 3.516649	-5.225038	 0.466231	 0.424329	-0.000002	-3.783157	-0.089647	 4.882466	 6.171998	-0.263400	 89.782160	 78.203850	 179.999900	 9.928371	 13.532820	 86.845220	-33.814850	-4.826315	 14.399430	 3.876635	 2.987665	-6.174960	 6.112037	 4.509576	-0.364401	 4.968462	 1.518543	-9.347576	 5.168945	 0.703820	 2.021906
 0.000059	 0.018841	 1.222813	-0.004240	 0.003824	 0.128893	-6.490956	-13.136620	 179.420200	 0.770919	-35.942250	-2.390395	-23.989120	 83.278940	 18.137640	-2.385833	 28.452760	 0.000004	 6.317960	-13.194850	-179.623300	-0.776299	-35.826520	 2.336464	 23.151560	 83.233090	-17.441180	 2.384658	 28.388730	 0.000004	-3.360962	 3.342047	 0.317686	-1.690061	 1.504671	-0.754230	 5.113081	-1.803827	 0.957549	-91.776180	 78.527450	 180.000000	 58.725830	 41.027580	-44.348300	-7.678260	 4.717125	-11.880660	-28.484220	 3.610536	-4.257232	-2.635965	 4.993658	 6.788941	-5.165319	 0.784187	 3.516649	-5.225038	 0.466231	 0.424329	-0.000002	-3.783157	-0.089647	 5.055941	 6.087149	-0.269014	 89.782200	 78.203890	 179.999900	 9.893291	 13.608250	 86.835200	-33.867400	-4.847076	 14.415530	 3.885617	 2.941083	-6.198347	 6.112037	 4.509576	-0.364401	 4.968462	 1.518543	-9.347576	 5.168945	 0.703820	 2.021906
 0.000067	 0.018690	 1.222967	-0.003967	 0.003479	 0.132236	-6.491369	-13.110380	 179.415900	 0.773461	-35.892860	-2.386060	-23.888100	 83.258140	 18.035540	-2.385833	 28.452760	 0.000004	 6.316154	-13.158660	-179.625500	-0.779265	-35.767510	 2.331396	 23.054430	 83.213260	-17.342820	 2.384658	 28.388730	 0.000004	-3.488210	 3.303317	 0.324454	-1.754752	 1.640129	-0.774292	 5.308929	-1.967713	 1.002841	-91.776200	 78.527470	-180.000000	 58.783350	 41.032120	-44.302380	-7.673387	 4.740356	-11.940220	-28.487340	 3.610120	-4.257765	-2.635965	 4.993658	 6.788941	-5.165319	 0.784187	 3.516649	-5.225038	 0.466231	 0.424329	-0.000002	-3.783157	-0.089647	 5.245131	 5.986281	-0.274460	 89.782020	 78.203890	-180.000000	 9.842652	 13.710220	 86.820090	-33.934900	-4.873107	 14.434780	 3.908722	 2.907445	-6.222724	 6.112037	 4.509576	-0.364401	 4.968462	 1.518543	-9.347576	 5.168945	 0.703820	 2.021906
 0.000076	 0.018553	 1.223102	-0.003769	 0.003250	 0.135278	-6.491701	-13.087430	 179.412100	 0.775677	-35.849660	-2.382274	-23.800200	 83.239980	 17.946690	-2.385833	 28.452760	 0.000004	 6.314586	-13.126780	-179.627600	-0.781869	-35.715550	 2.326939	 22.969750	 83.195820	-17.257050	 2.384658	 28.388730	 0.000004	-3.594162	 3.267549	 0.329336	-1.808802	 1.765034	-0.790113	 5.472701	-2.119428	 1.042145	-91.776200	 78.527490	-180.000000	 58.845880	 41.038720	-44.273670	-7.669091	 4.760470	-11.991960	-28.491700	 3.609577	-4.258485	-2.635965	 4.993658	 6.788941	-5.165319	 0.784187	 3.516649	-5.225038	 0.466231	 0.424329	-0.000002	-3.783157	-0.089647	 5.402626	 5.894411	-0.278367	 89.782190	 78.203900	 179.999900	 9.781357	 13.802420	 86.800090	-33.995600	-4.897276	 14.453820	 3.930126	 2.878235	-6.244301	 6.112037	 4.509576	-0.364401	 4.968462	 1.518543	-9.347576	 5.168945	 0.703820	 2.021906
